<?xml version="1.0" standalone="no"?>
<!DOCTYPE svg PUBLIC "-//W3C//DTD SVG 20010904//EN"
 "http://www.w3.org/TR/2001/REC-SVG-20010904/DTD/svg10.dtd">
<svg version="1.0" xmlns="http://www.w3.org/2000/svg"
 width="564.000000pt" height="864.000000pt" viewBox="0 0 564.000000 864.000000"
 preserveAspectRatio="xMidYMid meet">

<g transform="translate(0.000000,864.000000) scale(0.100000,-0.100000)"
fill="#000000" stroke="none">
<path d="M0 7415 l0 -1225 26 4 c66 12 163 18 176 10 7 -5 78 -10 158 -11 80
-1 190 -4 245 -6 l100 -3 2 -139 c3 -187 4 -181 -55 -184 -27 -1 -60 3 -75 8
-14 6 -29 6 -31 2 -3 -5 -34 -7 -68 -5 -35 2 -117 6 -183 8 -66 2 -124 5 -130
7 -5 2 -45 -1 -88 -5 l-77 -8 0 -719 c0 -666 1 -720 17 -739 21 -24 39 -26 51
-5 8 16 36 16 60 2 7 -5 12 -3 12 4 0 8 7 6 19 -5 18 -17 39 -17 243 -11 123
3 239 8 258 10 60 7 62 2 66 -159 5 -145 4 -146 -18 -155 -13 -4 -117 -7 -233
-6 -116 1 -214 0 -219 -3 -9 -5 -82 -4 -169 1 -43 3 -50 1 -59 -19 -6 -13 -15
-21 -19 -18 -5 3 -9 -65 -9 -150 l0 -155 35 -7 c19 -3 38 -11 42 -17 8 -13
-54 -70 -67 -62 -6 4 -10 -118 -10 -326 0 -307 2 -338 21 -407 15 -56 18 -80
11 -96 -10 -19 -11 -19 -12 9 -1 17 -5 39 -10 50 -5 11 -9 -613 -9 -1432 l-1
-1453 2820 0 2820 0 0 555 0 555 -42 1 c-33 0 -38 2 -23 9 17 7 17 9 3 9 -37
2 -16 21 22 21 l40 0 0 1149 0 1148 -42 7 c-24 4 -58 11 -75 17 -31 10 -33 14
-33 54 0 52 13 63 87 69 26 2 51 4 56 5 4 1 7 67 7 147 l0 146 -22 -6 c-13 -3
-29 -6 -35 -6 -7 0 -13 -9 -13 -20 0 -23 -12 -25 -42 -9 -17 9 -18 13 -7 20
11 7 10 11 -6 23 -11 9 -23 16 -27 16 -11 0 -31 -81 -30 -125 1 -22 3 -98 4
-170 2 -71 0 -137 -4 -145 -4 -8 -12 -50 -19 -93 -6 -43 -15 -80 -19 -82 -4
-2 -20 -1 -36 4 -24 6 -29 13 -30 41 -1 26 1 30 10 19 6 -8 21 -20 34 -27 21
-12 22 -11 22 28 0 46 -13 54 -96 59 -33 2 -99 236 -75 265 11 13 15 103 9
199 -5 75 -15 89 -62 85 -41 -4 -47 -28 -7 -28 21 0 31 -5 31 -15 0 -19 -70
-21 -88 -3 -17 17 -28 0 -14 -22 8 -13 9 -27 2 -45 -11 -29 -27 -33 -33 -7
-17 58 -16 88 3 110 11 13 24 21 29 18 12 -8 41 21 41 40 0 27 -39 102 -64
121 -22 18 -24 24 -19 87 4 38 11 70 18 72 6 3 31 0 55 -5 36 -8 50 -6 82 10
l38 19 -29 40 c-21 30 -30 56 -36 105 -6 56 -9 65 -27 65 -14 0 -18 -5 -15
-15 4 -8 3 -17 -2 -19 -4 -3 -7 -29 -6 -58 2 -57 -15 -88 -45 -88 -10 0 -21 7
-24 16 -10 26 -7 172 4 179 6 4 7 12 3 18 -5 8 -2 8 9 0 8 -7 35 -16 59 -19
35 -5 54 -1 88 17 l44 23 -47 13 c-39 12 -55 12 -100 0 -29 -7 -58 -11 -64 -9
-9 3 -12 150 -12 577 0 497 2 576 15 589 17 17 20 30 5 21 -6 -4 -10 42 -10
129 0 123 2 136 18 137 13 0 14 2 2 6 -8 3 -18 11 -22 17 -4 6 -8 190 -8 409
l0 397 -34 0 c-18 0 -46 -5 -62 -10 l-29 -10 3 -1345 c1 -901 -1 -1345 -8
-1345 -5 0 -9 6 -8 13 2 6 -3 11 -11 9 -17 -3 -53 27 -45 39 3 5 -2 6 -10 3
-9 -3 -16 -1 -16 6 0 6 -4 9 -9 6 -36 -22 -36 -17 -35 767 1 909 7 1739 12
1680 5 -67 18 -51 28 37 9 74 8 80 -11 90 -16 8 -16 10 -2 5 10 -3 29 -5 41
-5 19 0 22 -5 20 -32 -2 -18 2 -11 8 17 l11 50 13 -40 12 -40 1 37 c1 42 -16
59 -35 34 -8 -12 -13 -13 -16 -5 -3 9 -9 9 -23 2 -11 -6 -30 -7 -46 -3 -15 5
-30 6 -33 3 -3 -4 -6 -567 -6 -1252 -1 -685 -3 -1262 -4 -1281 -2 -19 -4 -42
-5 -50 -1 -11 -16 -16 -59 -18 -36 -2 -74 -11 -105 -27 -27 -14 -55 -25 -63
-25 -23 0 -16 45 12 71 22 21 23 25 9 35 -22 16 -27 183 -25 774 2 489 4 622
15 820 3 63 6 127 7 142 1 26 21 43 38 33 5 -3 11 -1 15 5 4 6 -5 10 -19 10
-22 0 -26 5 -26 28 0 15 -6 34 -12 40 -10 10 -14 95 -16 337 -2 193 -7 325
-13 325 -11 0 -11 -1 -9 -127 2 -104 -4 -118 -33 -88 -13 13 -20 13 -50 0 -19
-8 -37 -11 -41 -8 -3 4 -6 -5 -6 -20 0 -16 -11 -36 -27 -52 -28 -26 -53 -33
-53 -15 0 6 -38 10 -95 10 -91 0 -95 -1 -111 -26 -20 -30 -14 -36 51 -56 22
-7 46 -18 53 -25 7 -7 19 -13 26 -13 7 0 21 -9 30 -19 17 -19 17 -20 -2 -30
-15 -8 -22 -8 -26 2 -3 6 -3 2 0 -10 4 -18 1 -23 -15 -23 -34 0 -24 -17 14
-24 25 -5 39 -14 45 -30 4 -12 20 -30 33 -39 19 -13 25 -25 24 -49 0 -18 1
-40 4 -48 3 -13 -18 -15 -144 -18 -81 -1 -155 2 -165 7 -17 9 -18 39 -20 461
-1 249 -5 456 -8 461 -19 32 -24 -26 -22 -259 l3 -257 -45 3 c-25 2 -48 6 -53
11 -4 4 -9 45 -11 92 -4 74 -6 84 -23 82 -142 -18 -276 -36 -353 -47 -326 -50
-500 -75 -526 -74 -33 0 -319 -39 -348 -48 -18 -6 -19 -17 -13 -323 8 -342 10
-3021 4 -3028 -3 -2 -7 301 -11 674 -3 373 -10 973 -15 1333 -8 609 -8 562 -8
-685 0 -827 3 -1345 9 -1352 6 -8 4 -20 -7 -36 -15 -23 -14 -25 8 -40 15 -10
29 -12 38 -6 17 11 59 12 59 1 0 -12 -56 -42 -78 -42 -12 0 -22 -8 -25 -22 -3
-13 -11 -37 -18 -55 -11 -28 -11 -34 6 -52 18 -20 18 -21 -3 -38 -11 -10 -28
-23 -38 -29 -22 -13 -10 -34 19 -34 13 0 17 -4 11 -9 -5 -6 -83 -13 -173 -16
-90 -3 -174 -7 -185 -10 -12 -2 -61 -6 -111 -9 -64 -4 -81 -2 -60 4 17 6 60
11 97 12 81 2 94 23 20 33 -69 9 -84 21 -41 33 30 8 32 9 13 16 -12 4 -25 17
-28 29 -5 18 -8 20 -16 7 -6 -9 -10 -10 -10 -3 0 22 19 24 79 8 32 -8 75 -15
94 -15 20 0 47 -4 61 -10 25 -9 48 3 24 13 -8 3 -6 6 5 6 9 1 17 5 17 9 0 5
11 14 24 22 34 18 31 53 -4 45 -15 -3 -33 0 -45 9 -13 10 -44 16 -90 16 -38 0
-77 5 -85 10 -11 8 -7 9 15 6 24 -4 22 -2 -10 9 l-40 15 65 -5 c44 -3 60 -2
50 5 -17 11 -17 11 95 15 39 1 81 3 94 4 l23 1 -22 18 -22 18 41 0 c22 -1 41
-5 41 -10 0 -5 2 -7 5 -4 11 11 -8 38 -26 38 -10 0 -19 4 -19 8 0 5 -10 13
-22 19 -22 10 -22 10 10 17 l32 8 -1 486 c0 268 -4 505 -8 527 -8 37 -9 38
-11 10 -1 -18 -4 -23 -7 -12 -2 9 -9 15 -14 11 -5 -3 -7 -11 -3 -17 3 -7 -2
-3 -10 7 -14 18 -21 15 -17 -6 2 -12 -17 -10 -24 2 -3 6 -11 10 -16 10 -6 0
-7 -4 -4 -10 3 -6 -1 -10 -9 -10 -9 0 -16 -4 -16 -8 0 -13 -51 -6 -60 8 -4 7
-13 9 -19 5 -7 -4 -18 -1 -26 5 -8 7 -15 9 -15 4 0 -5 -4 -3 -9 5 -5 8 -9 81
-9 162 l-1 149 34 0 c29 0 34 -4 38 -27 3 -22 4 -22 3 4 -1 18 2 34 6 35 20 7
178 -5 173 -13 -4 -5 -1 -17 4 -26 8 -14 10 -9 11 26 0 47 12 50 15 4 1 -16 3
-322 3 -681 2 -518 5 -653 15 -649 9 3 11 216 8 1038 -3 569 -5 1090 -6 1159
-1 69 -3 356 -4 638 -1 334 -4 512 -11 512 -7 0 -10 -296 -10 -867 0 -476 -2
-864 -4 -862 -2 2 -6 201 -9 441 -4 300 -10 444 -18 459 -7 15 -8 19 0 15 8
-5 11 13 11 58 0 46 -4 66 -12 67 -7 0 -48 0 -91 0 -59 0 -80 4 -84 15 -3 9
-9 11 -17 6 -16 -13 -56 -8 -67 9 -8 12 -11 11 -22 -3 -13 -17 -44 -18 -78 -4
-24 10 -280 12 -309 3 -15 -5 -20 -5 -12 1 9 6 3 9 -18 9 -17 0 -26 -4 -19 -7
6 -4 -18 -7 -54 -6 -36 0 -63 4 -60 9 2 4 -23 7 -56 7 -48 0 -61 3 -65 18 -7
26 -8 161 0 218 l6 51 88 11 c48 7 94 10 102 8 14 -5 183 -19 208 -18 8 0 53
1 100 2 47 1 102 5 123 10 20 4 38 5 38 1 5 -22 8 -67 10 -143 1 -49 6 -88 11
-88 5 0 5 50 2 110 -5 80 -4 110 4 110 7 0 11 6 9 13 -1 9 29 11 131 9 l132
-3 0 166 c0 189 11 172 -106 152 -74 -13 -154 -11 -154 4 0 13 56 23 410 74
96 14 339 50 540 80 201 30 439 65 531 79 159 23 208 23 262 1 15 -6 17 1 17
77 l0 84 -32 9 c-32 10 -33 12 -33 62 -1 29 -3 54 -5 57 -6 5 -175 -22 -425
-69 -166 -31 -448 -75 -481 -75 -52 0 -104 10 -104 20 0 9 58 24 175 44 44 8
181 33 305 55 124 23 277 50 340 61 63 12 138 25 165 31 28 5 239 43 470 84
231 41 456 82 500 90 44 9 145 27 225 41 80 14 165 29 190 34 100 19 217 7
208 -23 -3 -6 -38 -17 -79 -24 -41 -7 -81 -16 -90 -22 -15 -8 -43 -13 -234
-40 -38 -6 -101 -17 -140 -26 -38 -8 -80 -15 -92 -15 -20 0 -22 -6 -25 -62
l-3 -63 -105 -18 c-58 -9 -111 -15 -117 -12 -8 3 -13 24 -13 55 0 27 -3 50 -7
50 -5 -1 -33 -7 -63 -14 -50 -11 -53 -13 -27 -20 15 -3 33 -4 39 0 6 4 8 3 5
-3 -4 -6 1 -14 10 -17 32 -13 -27 -34 -61 -23 -20 7 -30 6 -36 -2 -5 -9 -9 -8
-14 5 -4 10 -1 21 6 26 9 5 9 8 1 8 -6 0 -19 3 -28 7 -15 5 -17 0 -10 -45 4
-29 3 -53 -2 -53 -4 -1 -17 -3 -28 -4 -44 -6 -220 -36 -221 -38 -2 -1 -5 -36
-8 -78 -5 -58 -3 -79 8 -88 10 -8 16 -8 25 3 6 7 37 17 69 21 31 3 149 19 262
35 113 16 228 31 255 34 28 3 149 19 270 36 121 16 318 42 438 57 l217 26 0
253 0 253 -32 4 -33 4 33 1 32 2 0 565 0 565 -2820 0 -2820 0 0 -1225z m363
268 c-7 -2 -21 -2 -30 0 -10 3 -4 5 12 5 17 0 24 -2 18 -5z m150 -20 c-7 -2
-19 -2 -25 0 -7 3 -2 5 12 5 14 0 19 -2 13 -5z m624 -190 c-2 -16 -4 -5 -4 22
0 28 2 40 4 28 2 -13 2 -35 0 -50z m4430 21 c-3 -3 -12 -4 -19 -1 -8 3 -5 6 6
6 11 1 17 -2 13 -5z m-3107 -273 c0 -138 -4 -252 -8 -255 -4 -2 -14 -1 -22 5
-12 7 -12 9 -2 9 11 0 13 43 12 228 -2 270 -3 262 10 262 6 0 10 -90 10 -249z
m110 3 l0 -242 -42 -4 c-24 -3 -44 -4 -45 -4 -2 1 -5 425 -4 468 1 26 3 27 46
26 l45 -2 0 -242z m40 -4 c0 -153 -4 -240 -10 -240 -6 0 -10 84 -10 233 0 206
3 247 17 247 2 0 3 -108 3 -240z m-2320 189 c0 -5 -39 -9 -87 -8 -50 0 -80 4
-69 8 28 11 156 11 156 0z m827 -26 c-3 -10 -5 -4 -5 12 0 17 2 24 5 18 2 -7
2 -21 0 -30z m186 30 c-13 -2 -33 -2 -45 0 -13 2 -3 4 22 4 25 0 35 -2 23 -4z
m-1163 -53 c-36 -12 -60 -12 -60 0 0 6 19 10 43 9 36 -1 38 -2 17 -9z m977
-37 c-3 -10 -5 -4 -5 12 0 17 2 24 5 18 2 -7 2 -21 0 -30z m2853 -23 c13 -8
13 -9 0 -14 -8 -2 -23 -7 -32 -10 -19 -6 -33 8 -23 24 8 12 35 13 55 0z m83
-7 c-7 -2 -21 -2 -30 0 -10 3 -4 5 12 5 17 0 24 -2 18 -5z m-2924 -212 c1 -57
-1 -102 -3 -100 -2 2 -7 60 -10 129 -3 76 -2 115 3 100 5 -14 9 -72 10 -129z
m2275 124 c5 -14 -18 -45 -34 -45 -5 0 -7 7 -5 15 3 8 7 22 10 30 6 19 21 19
29 0z m1911 -41 c82 -9 151 -17 153 -19 2 -1 -23 -6 -55 -9 -32 -4 -78 -10
-103 -12 -25 -3 -79 -12 -120 -20 -118 -22 -120 -22 -120 29 0 24 3 47 7 51 4
3 25 4 47 1 23 -3 108 -12 191 -21z m-377 -85 c-18 -12 -51 -11 -44 0 4 5 1
11 -5 13 -6 2 0 9 15 16 15 7 26 8 26 2 0 -6 -4 -10 -10 -10 -5 0 -10 -4 -10
-10 0 -22 30 5 31 29 2 26 2 25 6 -3 3 -17 -1 -32 -9 -37z m-84 22 c4 -5 0
-12 -6 -14 -7 -3 -2 -6 12 -7 23 -1 23 -2 5 -10 -28 -12 -65 -12 -65 0 0 27
42 51 54 31z m-3174 -11 c0 -5 -17 -10 -37 -11 -30 0 -34 -2 -18 -9 19 -7 19
-8 1 -15 -11 -5 -21 -3 -27 6 -7 11 -9 11 -9 -3 0 -12 -8 -18 -24 -18 -33 0
-42 17 -20 41 13 15 30 19 76 19 32 0 58 -4 58 -10z m-670 -60 c0 -5 -12 -10
-27 -10 -22 0 -25 2 -13 10 20 13 40 13 40 0z m617 4 c-3 -3 -12 -4 -19 -1 -8
3 -5 6 6 6 11 1 17 -2 13 -5z m107 -30 c27 -10 -1 -34 -40 -34 -36 0 -42 8
-22 28 13 13 37 15 62 6z m572 -62 c-11 -10 -15 4 -8 28 l7 25 3 -23 c2 -13 1
-26 -2 -30z m97 35 c3 -8 -1 -14 -9 -14 -8 0 -14 6 -14 14 0 7 4 13 9 13 5 0
11 -6 14 -13z m-1280 -32 c-7 -21 -13 -19 -13 6 0 11 4 18 10 14 5 -3 7 -12 3
-20z m277 -15 c0 -5 -4 -10 -10 -10 -5 0 -10 5 -10 10 0 6 5 10 10 10 6 0 10
-4 10 -10z m2220 -55 c0 -8 -4 -15 -10 -15 -5 0 -7 7 -4 15 4 8 8 15 10 15 2
0 4 -7 4 -15z m-993 -69 c4 -5 2 -11 -4 -13 -8 -3 -13 -24 -13 -54 0 -27 -4
-49 -10 -49 -5 0 -10 20 -10 45 0 25 -4 45 -10 45 -5 0 -10 -22 -10 -50 0 -36
-4 -50 -14 -50 -7 0 -28 -3 -45 -6 l-31 -6 0 46 c0 55 -17 62 -22 9 -2 -20 -8
-38 -15 -40 -8 -3 -10 6 -6 31 6 40 -3 48 -17 14 -6 -17 -9 -18 -9 -6 -1 14
-6 15 -33 7 -18 -5 -50 -9 -70 -9 -33 0 -38 -3 -39 -22 l0 -23 -10 23 c-5 13
-13 21 -19 17 -5 -3 -87 -19 -182 -35 -95 -17 -193 -34 -218 -40 -53 -12 -45
-10 -330 -61 -124 -22 -256 -46 -295 -54 -80 -17 -153 -19 -175 -5 -12 8 -12
10 3 14 9 4 25 9 34 12 32 10 471 94 1068 205 219 41 310 58 330 63 30 7 143
1 152 -8z m-1500 -58 c-3 -8 -6 -5 -6 6 -1 11 2 17 5 13 3 -3 4 -12 1 -19z
m143 -8 c0 -5 -4 -10 -10 -10 -5 0 -10 5 -10 10 0 6 5 10 10 10 6 0 10 -4 10
-10z m3240 -244 c0 -16 -38 -76 -48 -76 -5 0 -21 13 -36 29 -36 38 -29 59 21
63 46 4 63 0 63 -16z m-560 -16 c15 0 19 -11 25 -61 5 -43 4 -64 -4 -69 -9 -5
-8 -10 4 -20 12 -10 15 -34 15 -111 0 -87 -2 -99 -19 -109 -11 -5 -28 -10 -39
-10 -21 0 -29 34 -38 173 -5 70 -4 72 41 67 23 -2 16 8 -16 24 -12 6 -21 14
-20 19 0 4 1 30 1 58 0 43 3 50 16 45 9 -3 24 -6 34 -6z m515 -100 c-3 -5 -13
-10 -21 -10 -8 0 -14 5 -14 10 0 6 9 10 21 10 11 0 17 -4 14 -10z m-1370 -10
c-3 -5 -12 -7 -20 -3 -21 7 -19 13 6 13 11 0 18 -4 14 -10z m1419 -57 c-5 -5
-12 -12 -16 -18 -4 -6 -8 -2 -8 8 0 9 7 17 17 17 9 0 12 -3 7 -7z m-3529 -153
c28 -4 55 -5 62 -2 6 4 95 6 198 4 l186 -3 10 -27 c14 -38 18 -270 5 -281 -6
-4 -27 -11 -46 -15 -22 -4 -30 -3 -21 3 10 6 2 9 -25 8 -21 0 -42 -4 -45 -9
-3 -5 -18 -4 -33 1 -14 6 -52 12 -82 13 -31 1 -57 6 -60 9 -2 4 -88 8 -191 9
-103 0 -191 4 -194 8 -7 7 -14 174 -11 252 l2 46 98 -4 c53 -2 120 -7 147 -12z
m3527 -30 c3 -17 1 -33 -4 -36 -5 -3 -6 -9 -4 -13 5 -7 -39 -5 -102 5 -33 5
-36 24 -3 24 10 0 25 7 32 16 13 16 45 32 65 33 7 1 14 -13 16 -29z m-1104
-32 c8 -8 18 -9 34 -1 29 13 76 11 105 -5 12 -7 37 -12 56 -12 29 0 36 -4 41
-25 4 -14 13 -25 20 -25 8 0 21 11 30 25 9 14 25 25 36 25 11 0 20 7 20 15 0
21 11 18 38 -9 25 -27 23 -31 -31 -41 -26 -5 -37 -12 -33 -21 3 -7 0 -15 -7
-18 -7 -2 0 -5 16 -5 15 -1 27 4 27 10 0 6 7 3 17 -6 12 -13 26 -15 60 -10
l43 6 0 -40 c0 -37 -13 -56 -22 -31 -2 6 -18 6 -43 0 -22 -5 -59 -10 -82 -10
-23 0 -45 -5 -48 -11 -10 -15 -5 -17 43 -21 25 -3 51 -13 65 -26 24 -22 47
-29 47 -14 0 5 13 8 30 7 26 -2 30 2 36 32 3 18 4 43 0 56 -3 12 -1 45 5 74
10 41 17 53 36 58 33 8 43 -1 43 -36 0 -39 17 -37 25 2 l7 32 77 -7 c153 -15
218 -18 307 -16 96 2 104 -2 110 -44 2 -12 6 -32 10 -46 7 -32 -11 -80 -31
-80 -8 0 -15 -4 -15 -10 0 -5 6 -10 13 -10 17 0 40 -47 31 -62 -5 -7 -37 -8
-103 -2 -53 4 -164 7 -248 5 -112 -2 -153 1 -159 10 -4 7 -6 34 -5 61 1 28 -2
48 -9 48 -6 0 -10 -23 -10 -55 0 -41 -4 -56 -17 -64 -17 -9 -17 -10 0 -16 12
-5 17 -18 17 -44 0 -46 -14 -61 -57 -61 -32 0 -33 1 -33 40 0 27 6 45 21 59
27 25 14 32 -56 32 -30 0 -57 5 -61 10 -3 6 -25 8 -48 5 -27 -4 -33 -3 -16 3
24 7 23 8 -13 15 -38 7 -107 -10 -107 -27 0 -4 -24 -7 -52 -6 -29 2 -62 0 -74
-4 -12 -4 -28 -1 -39 7 -17 12 -19 28 -20 134 -1 120 -14 185 -16 81 -3 -132
-9 -213 -16 -219 -12 -10 -315 9 -340 21 -11 6 -25 9 -30 6 -5 -3 -8 9 -8 26
3 66 4 68 23 58 13 -7 22 -7 29 0 6 6 19 6 37 -1 48 -18 84 -13 88 12 3 25 36
45 88 53 31 4 36 9 35 33 0 27 -1 27 -70 28 -39 0 -80 1 -92 2 -26 2 -32 32
-7 32 8 0 13 4 9 10 -5 9 41 13 176 18 31 1 60 -3 67 -10z m-398 -212 c0 -8
-4 -18 -10 -21 -5 -3 -10 3 -10 14 0 12 5 21 10 21 6 0 10 -6 10 -14z m1135
-107 c41 0 75 -5 75 -10 0 -5 16 -9 35 -9 31 0 35 -3 35 -25 0 -28 -12 -32
-30 -10 -18 22 -35 18 -48 -9 -9 -20 -20 -25 -69 -30 -106 -11 -133 -1 -133
50 0 27 5 37 23 43 12 5 25 7 29 4 4 -2 41 -4 83 -4z m365 -64 c0 -9 -6 -12
-15 -9 -8 4 -15 10 -15 15 0 5 7 9 15 9 8 0 15 -7 15 -15z m-322 -73 c10 -16
19 -18 53 -12 22 4 37 4 32 0 -4 -5 -21 -10 -37 -12 -37 -4 -41 -28 -15 -84
10 -24 19 -52 19 -64 0 -11 8 -24 18 -27 9 -4 20 -11 24 -17 8 -13 37 20 38
44 1 10 4 8 9 -5 6 -13 19 -21 38 -23 27 -2 29 0 25 27 -4 26 0 30 28 36 37 8
50 -4 50 -46 0 -14 5 -39 10 -56 7 -18 8 -64 3 -124 l-8 -94 -29 0 c-29 0 -29
0 -33 -72 -4 -68 -3 -74 21 -96 21 -19 26 -34 26 -71 0 -59 -22 -62 -40 -6
-16 47 -30 52 -30 10 0 -23 -5 -30 -19 -30 -15 0 -20 10 -25 49 -4 30 -2 60 6
77 14 35 16 77 4 86 -5 3 -9 34 -9 67 0 40 -4 60 -11 58 -7 -2 -10 -28 -8 -69
4 -70 -7 -86 -50 -72 -24 7 -48 -12 -47 -40 0 -20 1 -20 10 2 14 37 44 25 44
-18 0 -28 -4 -36 -21 -38 -17 -2 -25 -15 -36 -55 l-15 -52 -50 0 c-27 0 -56
-6 -65 -12 -29 -25 -82 -2 -74 31 3 13 1 38 -4 56 -11 39 -14 407 -4 569 l7
114 76 -6 c60 -5 79 -10 89 -25z m-212 -47 c1 -33 6 -77 12 -97 7 -25 7 -49 0
-75 -5 -21 -13 -60 -18 -88 -4 -27 -8 -44 -9 -37 -2 17 -21 15 -21 -3 0 -8 7
-15 15 -15 13 0 13 -3 3 -19 -9 -15 -9 -25 0 -43 11 -23 16 -68 13 -118 0 -17
-11 -32 -31 -43 l-29 -18 0 82 c0 45 -5 151 -12 236 -9 117 -9 157 0 162 6 4
11 18 10 32 0 23 7 67 17 97 2 7 14 12 26 10 21 -3 23 -9 24 -63z m492 -5 c44
-27 34 -39 -23 -26 -32 8 -45 15 -45 28 0 24 27 23 68 -2z m-148 -10 c0 -15
-7 -20 -25 -20 -18 0 -25 5 -25 20 0 15 7 20 25 20 18 0 25 -5 25 -20z m-744
-130 c16 0 28 -13 44 -47 21 -44 21 -49 6 -74 -17 -30 -20 -98 -6 -169 6 -33
4 -52 -6 -72 -8 -15 -14 -49 -14 -75 0 -55 -27 -100 -54 -90 -20 8 -21 37 -2
37 18 0 27 26 20 56 -7 27 -44 34 -44 8 0 -8 -4 -12 -10 -9 -6 4 -10 -7 -10
-27 -1 -32 -1 -32 -13 -10 -7 12 -17 19 -21 15 -5 -4 -5 15 -1 42 3 28 8 75
10 105 4 90 4 87 15 70 5 -8 10 -28 11 -45 l2 -30 4 28 4 28 20 -25 c10 -13
19 -34 19 -45 0 -23 15 -29 22 -8 3 6 3 31 0 54 -4 39 -6 42 -27 37 -20 -5
-22 -2 -22 36 0 38 1 41 23 36 28 -7 39 7 19 24 -8 7 -15 9 -15 5 0 -4 -6 -3
-13 3 -17 14 -47 -9 -47 -36 0 -15 -5 -20 -15 -16 -18 7 -21 136 -5 180 10 24
14 26 48 20 20 -3 47 -6 58 -6z m112 -71 c-3 -20 0 -29 9 -29 7 0 13 -4 13
-10 0 -13 -23 -13 -36 0 -13 13 -5 82 8 74 5 -4 8 -19 6 -35z m-2290 -89 c-2
-35 -8 -55 -17 -58 -11 -4 -13 3 -8 31 3 23 1 38 -6 41 -9 5 -9 7 1 12 6 3 12
15 12 27 0 15 3 18 11 10 5 -5 9 -34 7 -63z m2441 56 c6 -7 11 -27 11 -42 -1
-16 2 -57 6 -91 5 -45 3 -63 -5 -63 -6 0 -11 6 -11 14 0 8 -6 21 -13 28 -9 9
-14 39 -14 91 0 77 5 89 26 63z m-3759 -116 c0 -5 -7 -10 -15 -10 -8 0 -15 5
-15 10 0 6 7 10 15 10 8 0 15 -4 15 -10z m4427 -37 c-3 -10 -5 -2 -5 17 0 19
2 27 5 18 2 -10 2 -26 0 -35z m-2849 -30 c1 -33 -16 -81 -36 -105 -8 -10 -12
-18 -7 -18 4 0 3 -6 -2 -12 -5 -7 -17 -38 -27 -68 -18 -60 -32 -87 -40 -79 -6
6 28 119 49 164 7 17 22 56 32 87 20 63 30 73 31 31z m-248 -4 c0 -24 -23 -21
-28 4 -2 10 3 17 12 17 10 0 16 -9 16 -21z m2450 -79 c0 -43 -14 -54 -24 -17
-10 37 -7 57 9 57 11 0 15 -11 15 -40z m90 -50 c0 -5 -4 -10 -10 -10 -5 0 -10
5 -10 10 0 6 5 10 10 10 6 0 10 -4 10 -10z m-2280 -7 c0 -5 -9 -23 -20 -41
-11 -18 -20 -39 -20 -48 0 -8 -4 -13 -8 -10 -5 3 -6 -9 -4 -26 3 -19 1 -28 -5
-25 -6 4 -15 -12 -22 -33 -6 -22 -16 -40 -22 -40 -6 0 -8 -4 -5 -8 3 -5 -6
-19 -21 -32 -21 -18 -25 -19 -19 -5 5 14 3 16 -11 10 -25 -11 -72 -17 -53 -8
36 19 60 39 60 50 0 7 4 13 8 13 5 0 26 37 46 83 49 106 52 112 65 110 6 -2
11 2 11 7 0 6 5 10 10 10 6 0 10 -3 10 -7z m2198 -39 l2 -29 -14 25 c-19 31
-20 43 -3 38 6 -3 13 -18 15 -34z m63 -57 c-8 -8 -11 -3 -11 19 1 25 2 27 11
11 8 -14 8 -22 0 -30z m-2234 5 c-9 -9 -21 -29 -27 -42 -10 -24 -10 -24 -4 5
6 33 21 55 37 55 5 0 3 -8 -6 -18z m2686 -71 c27 -11 33 -26 19 -48 -6 -9 -25
-11 -63 -7 -29 3 -63 6 -74 7 -11 0 -26 7 -33 14 -7 7 -18 13 -23 13 -13 0
-11 -18 4 -23 9 -3 8 -9 -3 -21 -14 -14 -18 -14 -38 0 -12 8 -22 22 -22 30 0
8 -4 14 -10 14 -5 0 -10 6 -10 14 0 10 13 16 38 18 66 5 188 -1 215 -11z
m-2726 -23 c-3 -8 -6 -5 -6 6 -1 11 2 17 5 13 3 -3 4 -12 1 -19z m1947 -24
c11 -4 16 -19 16 -51 0 -53 -21 -55 -31 -3 -4 19 -12 36 -18 38 -12 4 -5 22 9
22 4 0 15 -3 24 -6z m-1968 -62 c-18 -16 -18 -16 -6 6 6 13 14 21 18 18 3 -4
-2 -14 -12 -24z m2629 9 c7 -12 -22 -20 -55 -16 -37 5 -38 6 -10 15 35 11 58
12 65 1z m-1808 -63 c-2 -13 -4 -3 -4 22 0 25 2 35 4 23 2 -13 2 -33 0 -45z
m1799 -30 c3 -5 4 -12 1 -14 -6 -6 -47 18 -47 27 0 10 39 -1 46 -13z m-2512
-72 c12 5 16 0 16 -17 0 -17 3 -20 9 -11 7 11 19 -69 23 -148 4 -106 -49 -224
-85 -188 -29 29 -38 58 -31 108 5 34 3 50 -5 50 -15 0 -10 20 11 44 12 13 14
23 8 31 -5 7 -7 14 -4 18 3 3 3 19 -1 35 -5 24 -11 30 -30 28 -18 -2 -24 3
-28 23 -6 32 -2 38 17 22 13 -11 16 -8 22 13 l6 26 28 -20 c16 -11 35 -17 44
-14z m2656 4 c0 -5 -4 -10 -10 -10 -5 0 -10 5 -10 10 0 6 5 10 10 10 6 0 10
-4 10 -10z m103 -40 c16 0 17 -12 15 -142 l-3 -143 -50 2 c-27 0 -65 4 -84 8
-25 6 -37 4 -45 -7 -11 -15 -17 -18 -36 -18 -16 0 -11 -33 10 -60 11 -14 20
-35 20 -47 0 -26 3 -27 29 -13 21 10 91 2 91 -11 0 -5 -5 -9 -12 -9 -6 0 -20
-8 -30 -17 -16 -14 -25 -15 -58 -6 -33 8 -40 8 -40 -4 0 -8 4 -12 9 -9 5 3 14
-1 21 -9 7 -8 23 -15 37 -15 13 0 22 -4 19 -9 -3 -4 -24 -8 -46 -8 -45 0 -59
-8 -43 -24 18 -18 4 -102 -22 -124 -18 -16 -22 -27 -18 -52 5 -33 -3 -39 -45
-34 -19 3 -44 -20 -38 -35 3 -7 -2 -15 -10 -18 -9 -3 -17 1 -20 12 -3 9 -10
25 -15 35 -5 10 -7 22 -4 27 3 5 0 29 -6 54 -11 46 -34 61 -42 29 -3 -11 -5
-7 -6 10 0 15 -5 27 -11 27 -14 0 -13 41 3 73 7 16 20 27 33 27 27 0 63 27 48
37 -13 10 -25 125 -14 143 5 8 18 10 37 6 18 -4 41 -1 61 9 35 18 42 28 15 23
-10 -1 -24 1 -30 5 -7 4 -22 3 -34 -4 -12 -6 -52 -12 -90 -14 -77 -3 -73 -7
-85 88 -10 87 -26 82 -23 -7 1 -42 -2 -81 -8 -87 -13 -13 -213 -20 -210 -7 1
5 -19 12 -45 14 -27 3 -48 0 -48 -5 0 -5 -26 -8 -57 -8 -32 0 -80 -1 -106 -2
-26 -2 -50 -2 -52 0 -2 3 -9 44 -15 91 -13 94 -2 146 30 150 8 0 20 2 25 3 6
2 18 3 28 4 33 2 17 21 -25 28 l-43 7 35 8 c57 13 115 1 130 -27 14 -26 30
-33 30 -14 0 6 14 9 33 8 18 -2 38 0 44 4 14 9 231 13 239 4 4 -3 10 -21 14
-39 l7 -33 17 37 c11 27 24 39 44 44 40 9 111 38 107 44 -2 4 192 4 338 0z
m-1200 -60 c27 -22 52 -26 62 -10 3 6 15 10 26 10 16 0 19 -7 19 -49 0 -34 -4
-51 -15 -55 -8 -3 -15 -17 -15 -32 0 -22 2 -25 15 -14 13 11 15 4 15 -53 0
-65 0 -65 -31 -72 -20 -5 -41 -2 -56 6 -21 12 -27 11 -37 -2 -15 -20 -44 -31
-51 -19 -9 14 -122 13 -127 -2 -2 -6 -10 -8 -17 -4 -7 5 -10 14 -7 22 7 17
-10 19 -17 2 -4 -10 -8 -9 -16 2 -9 13 -12 13 -20 1 -5 -7 -14 -10 -20 -7 -7
5 -11 -2 -12 -16 -1 -15 -5 -9 -11 17 -12 49 -5 244 9 253 5 4 13 14 16 22 3
9 6 3 6 -13 1 -16 5 -26 11 -22 5 3 6 13 3 22 -4 11 -3 14 5 9 7 -4 12 -2 12
6 0 9 3 9 10 -2 7 -10 13 -11 18 -5 4 6 36 12 72 14 36 1 67 4 69 7 11 11 61
2 84 -16z m-1633 -19 c0 -17 -18 -21 -24 -6 -3 9 0 15 9 15 8 0 15 -4 15 -9z
m475 -171 l0 -144 -37 -2 c-24 -2 -38 2 -38 9 0 7 -5 6 -11 -3 -8 -12 -9 -10
-5 10 3 14 6 32 7 40 0 8 5 4 9 -10 8 -25 8 -24 9 5 1 20 4 26 10 17 7 -11 10
-10 15 3 7 20 -3 67 -18 77 -8 5 -7 8 2 8 15 0 16 27 1 32 -6 2 -13 25 -16 50
-5 45 -5 47 23 51 16 2 34 3 39 2 6 -1 10 -57 10 -145z m-1945 100 c-19 -13
-30 -13 -30 0 0 6 10 10 23 10 18 0 19 -2 7 -10z m920 -3 c0 -9 3 -8 9 1 10
16 17 16 34 0 11 -10 11 -26 2 -85 -6 -40 -15 -76 -18 -80 -4 -3 -5 9 -2 28 4
26 3 29 -4 14 -9 -19 -10 -19 -10 -1 -1 17 -3 16 -24 -6 -13 -14 -30 -29 -38
-34 -8 -5 -23 -20 -31 -33 -15 -21 -15 -26 -2 -47 14 -21 14 -23 -3 -33 -27
-14 -219 -34 -254 -26 l-29 7 0 109 c0 113 17 185 42 177 6 -2 35 1 62 8 71
16 266 17 266 1z m17 -209 c-3 -8 -6 -5 -6 6 -1 11 2 17 5 13 3 -3 4 -12 1
-19z m2923 -42 c-15 -15 -34 9 -26 31 7 17 8 17 22 -1 9 -13 11 -23 4 -30z
m-2390 12 c0 8 8 5 22 -8 12 -11 27 -20 34 -20 6 0 17 -13 24 -30 8 -20 20
-30 34 -31 20 0 21 -1 1 -9 -19 -8 -19 -9 3 -9 14 -1 22 5 22 15 0 8 5 12 11
9 6 -4 8 -13 5 -20 -2 -7 1 -18 7 -24 8 -8 8 -11 0 -11 -6 0 -14 6 -17 13 -5
9 -7 9 -12 0 -3 -7 -11 -10 -18 -7 -8 3 -16 -1 -19 -9 -8 -20 -87 -22 -87 -1
0 8 -4 13 -9 9 -10 -6 -21 58 -19 113 1 21 4 28 10 20 6 -11 8 -11 8 0z m2911
-64 c5 -3 5 -26 0 -54 -1 -4 -15 -22 -60 -76 -5 -6 -12 -20 -15 -32 -4 -13
-15 -20 -27 -19 -14 1 -21 11 -26 39 -4 29 -9 36 -18 28 -9 -8 -14 -6 -19 6
-9 23 12 44 24 24 5 -8 10 -12 12 -10 2 3 14 25 27 50 14 25 29 48 35 52 9 6
50 1 67 -8z m-4481 -44 c0 -5 -4 -10 -10 -10 -5 0 -10 5 -10 10 0 6 5 10 10
10 6 0 10 -4 10 -10z m4299 -62 c10 -21 11 -36 4 -46 -12 -20 -33 -27 -33 -13
0 6 7 11 15 11 8 0 15 6 15 13 0 8 -10 13 -21 13 -14 -1 -23 6 -25 18 -7 46
25 49 45 4z m-2897 -3 c3 3 11 -2 18 -11 11 -12 11 -20 2 -35 -7 -10 -12 -26
-12 -34 0 -22 -18 -18 -44 10 -16 17 -22 33 -18 48 7 27 23 39 38 27 6 -6 13
-8 16 -5z m2938 -63 c0 -23 -7 -31 -38 -45 -47 -21 -52 -21 -52 -2 0 8 9 15
19 15 10 0 21 7 25 15 3 8 13 15 22 15 10 0 14 5 10 15 -3 8 -1 15 4 15 6 0
10 -13 10 -28z m-1056 12 c9 -3 16 -11 16 -16 0 -6 -7 -8 -15 -4 -17 6 -18 4
-9 -18 3 -8 12 -12 19 -10 9 4 13 -1 12 -15 -2 -25 -31 -28 -53 -7 -17 17 -19
40 -2 30 6 -4 8 -3 5 4 -4 5 -4 17 -1 26 7 18 7 18 28 10z m-1096 -264 c0 -52
-3 -117 -8 -145 -5 -32 -7 30 -7 170 0 152 2 197 7 145 4 -41 8 -118 8 -170z
m2165 161 c-5 -3 -12 -14 -16 -23 -6 -17 -27 -25 -27 -11 0 16 26 79 35 85 6
4 11 -3 13 -19 2 -14 0 -29 -5 -32z m-2131 -66 c-2 -53 2 -112 7 -133 8 -27 7
-49 -3 -81 l-13 -45 -5 35 c-4 19 -5 64 -3 99 2 36 4 103 4 149 1 46 4 81 8
77 4 -4 6 -49 5 -101z m2189 95 c24 -13 24 -29 2 -76 -14 -28 -15 -38 -5 -41
22 -8 13 -23 -13 -21 -27 2 -31 18 -15 48 7 13 7 27 -1 44 -11 23 -7 56 6 56
4 0 15 -5 26 -10z m-1178 -25 c-3 -9 -8 -14 -10 -11 -3 3 -2 9 2 15 9 16 15
13 8 -4z m743 -10 c26 -26 -2 -46 -35 -26 -12 8 -12 11 0 25 17 19 17 19 35 1z
m-700 -70 c-4 -18 -14 -36 -22 -39 -9 -3 -14 -12 -11 -19 3 -7 -1 -21 -8 -30
-11 -15 -13 -11 -19 29 -10 77 -9 84 19 84 15 0 28 7 32 17 10 26 16 -2 9 -42z
m774 -25 c0 -5 -4 -10 -10 -10 -5 0 -10 5 -10 10 0 6 5 10 10 10 6 0 10 -4 10
-10z m96 -5 c-11 -12 -25 -14 -51 -9 -47 9 -34 24 21 24 41 0 44 -2 30 -15z
m-166 -25 c0 -5 -5 -10 -11 -10 -5 0 -7 5 -4 10 3 6 8 10 11 10 2 0 4 -4 4
-10z m443 -8 c-6 -4 -13 -16 -16 -27 -4 -16 -5 -14 -6 7 0 14 5 28 12 31 16 6
24 -2 10 -11z m597 -35 c0 -4 -7 -2 -15 7 -8 8 -15 21 -15 28 1 14 30 -20 30
-35z m-565 13 c3 -6 -1 -7 -9 -4 -18 7 -21 14 -7 14 6 0 13 -4 16 -10z m-20
-68 c-3 -3 -5 0 -5 8 0 10 -3 10 -15 0 -13 -10 -15 -9 -15 9 0 12 5 19 10 16
6 -3 10 0 11 7 0 7 5 2 10 -11 5 -13 7 -26 4 -29z m-1190 28 c3 -5 1 -10 -4
-10 -6 0 -11 5 -11 10 0 6 2 10 4 10 3 0 8 -4 11 -10z m-3188 -16 c-3 -3 -12
-4 -19 -1 -8 3 -5 6 6 6 11 1 17 -2 13 -5z m3203 -25 c0 -6 -4 -7 -10 -4 -5 3
-10 11 -10 16 0 6 5 7 10 4 6 -3 10 -11 10 -16z m-146 -81 c-9 -19 -13 -24
-10 -10 2 12 2 22 0 22 -3 0 -9 -10 -15 -22 -7 -18 -8 -15 -4 17 3 22 9 49 12
59 5 18 7 17 19 -6 12 -23 12 -31 -2 -60z m1610 40 c-4 -7 -9 -19 -10 -28 0
-8 -6 -33 -12 -55 -6 -22 -13 -62 -16 -89 -3 -27 -9 -53 -14 -58 -8 -8 -48 68
-54 102 -2 8 -7 18 -12 21 -5 4 -5 20 -1 35 6 20 9 24 12 13 3 -13 16 -5 54
33 45 45 73 59 53 26z m-2507 -90 c-3 -7 -5 -2 -5 12 0 14 2 19 5 13 2 -7 2
-19 0 -25z m-28 -175 c2 -98 -1 -143 -8 -143 -8 0 -11 52 -10 163 0 195 14
180 18 -20z m791 157 c0 -5 -17 -9 -37 -9 l-38 2 35 7 c19 4 36 8 38 9 1 0 2
-3 2 -9z m-237 -27 c-13 -2 -35 -2 -50 0 -16 2 -5 4 22 4 28 0 40 -2 28 -4z
m-526 -195 c-2 -35 -3 -7 -3 62 0 69 1 97 3 63 2 -35 2 -91 0 -125z m1720 75
c-3 -10 -5 -2 -5 17 0 19 2 27 5 18 2 -10 2 -26 0 -35z m-3962 -3 c3 -5 1 -10
-4 -10 -6 0 -11 5 -11 10 0 6 2 10 4 10 3 0 8 -4 11 -10z m3135 -10 c-6 -4
-11 -11 -11 -16 1 -5 -6 -17 -14 -27 -8 -9 -15 -21 -15 -25 -1 -12 -38 -52
-49 -52 -17 0 -13 15 9 35 11 10 32 38 47 61 15 23 31 40 36 37 5 -3 4 -9 -3
-13z m1557 -22 c-3 -7 -5 -2 -5 12 0 14 2 19 5 13 2 -7 2 -19 0 -25z m-736
-20 c-3 -21 -6 -26 -9 -15 -3 17 3 47 11 47 2 0 1 -15 -2 -32z m-481 -27 c-10
-20 -30 -37 -30 -27 0 6 33 46 38 46 1 0 -2 -9 -8 -19z m-30 -49 c0 -5 -7 -9
-15 -9 -8 0 -12 4 -9 9 3 4 9 8 15 8 5 0 9 -4 9 -8z m-3453 -54 c-3 -7 -5 -2
-5 12 0 14 2 19 5 13 2 -7 2 -19 0 -25z m3404 1 c-9 -22 -10 -22 -10 -3 -1 11
2 24 6 27 12 12 14 0 4 -24z m272 -108 c5 -21 13 -30 34 -34 69 -14 86 -21
113 -49 17 -16 30 -32 30 -35 0 -3 6 -11 14 -17 15 -12 30 -76 18 -76 -4 0 -8
-10 -8 -22 -1 -89 -4 -98 -48 -141 -24 -23 -47 -54 -51 -70 -4 -15 -13 -27
-21 -27 -8 0 -11 -6 -8 -15 6 -15 -36 -32 -66 -27 -13 3 -13 2 0 -8 13 -9 13
-11 0 -20 -8 -5 -24 -10 -35 -10 -11 0 -45 -12 -75 -26 -44 -21 -64 -25 -100
-19 -156 21 -225 26 -391 26 -154 -1 -189 2 -199 14 -7 8 -21 15 -30 15 -38 0
-50 10 -37 31 10 16 9 21 -3 29 -26 16 -4 21 99 22 55 0 101 3 101 7 0 4 -15
14 -32 24 -24 12 -58 17 -123 17 -49 0 -99 1 -110 2 -45 4 -86 -2 -80 -12 3
-5 2 -10 -4 -10 -5 0 -11 5 -13 10 -2 6 -47 13 -101 17 -53 3 -97 9 -97 13 0
8 75 20 122 20 22 0 47 15 92 54 l61 54 85 -10 c162 -19 373 2 456 45 28 15
31 14 42 -4 13 -20 13 -20 42 1 27 19 31 20 36 5 14 -35 -27 -144 -57 -152
-30 -8 -23 -23 11 -23 19 0 30 5 30 14 0 31 29 43 120 50 75 6 97 4 116 -9 14
-9 34 -13 47 -10 23 6 23 8 14 83 -5 42 -10 93 -11 114 0 20 -4 34 -8 31 -5
-2 -8 0 -8 6 0 5 5 13 11 17 7 4 7 9 1 13 -15 10 -26 101 -12 101 7 0 10 7 7
14 -4 10 -1 13 7 10 8 -3 16 -18 19 -33z m204 13 c-3 -3 -12 -4 -19 -1 -8 3
-5 6 6 6 11 1 17 -2 13 -5z m-3287 -24 c0 -5 -5 -10 -11 -10 -5 0 -7 5 -4 10
3 6 8 10 11 10 2 0 4 -4 4 -10z m810 7 c0 -2 -15 -16 -32 -33 -27 -24 -29 -25
-13 -4 24 30 45 47 45 37z m595 -7 c-11 -5 -15 -9 -10 -10 6 -1 28 -4 50 -6
55 -7 57 -14 3 -14 -26 0 -50 6 -57 13 -13 16 -5 27 18 26 12 0 11 -3 -4 -9z
m-437 -60 c-14 -22 -68 -45 -68 -29 0 5 7 9 15 9 9 0 19 8 22 18 4 9 11 20 17
24 18 12 26 -2 14 -22z m416 4 c5 -14 4 -15 -9 -4 -17 14 -19 20 -6 20 5 0 12
-7 15 -16z m-701 -11 c-7 -2 -19 -2 -25 0 -7 3 -2 5 12 5 14 0 19 -2 13 -5z
m58 -26 c-16 -16 -26 0 -10 19 9 11 15 12 17 4 2 -6 -1 -17 -7 -23z m-1207
-25 c-9 -20 -18 -43 -21 -50 -9 -23 -33 8 -33 43 0 39 3 42 40 43 l30 1 -16
-37z m-144 -102 c0 -5 -4 -10 -9 -10 -6 0 -13 5 -16 10 -3 6 1 10 9 10 9 0 16
-4 16 -10z m2097 4 c-3 -3 -12 -4 -19 -1 -8 3 -5 6 6 6 11 1 17 -2 13 -5z
m353 -46 c0 -6 -7 -7 -16 -4 -9 3 -18 6 -20 6 -3 0 -3 4 1 10 7 11 35 2 35
-12z m-310 -18 c22 -7 21 -8 -12 -9 -21 -1 -38 4 -38 9 0 11 14 11 50 0z m-13
-70 c28 -4 58 -12 65 -16 24 -16 83 -34 111 -34 16 0 26 -4 22 -9 -3 -5 3 -12
12 -14 14 -4 13 -5 -4 -6 -12 0 -25 4 -28 10 -4 6 -12 8 -19 6 -7 -3 -23 1
-37 9 -34 19 -59 18 -33 -1 10 -8 14 -15 7 -15 -6 0 -18 8 -25 18 -9 13 -38
23 -90 32 -54 10 -78 18 -78 28 0 10 6 12 23 7 12 -4 45 -10 74 -15z m-2089
-21 c-3 -8 -7 -3 -11 10 -4 17 -3 21 5 13 5 -5 8 -16 6 -23z m685 5 c3 -4 1
-16 -5 -27 -9 -18 -11 -19 -20 -4 -13 25 6 49 25 31z m1754 -40 c-3 -3 -12 -4
-19 -1 -8 3 -5 6 6 6 11 1 17 -2 13 -5z m-1572 -59 c376 -84 432 -98 460 -110
50 -22 9 -17 -221 29 -120 24 -257 52 -304 61 -114 22 -118 23 -131 47 -10 19
-9 20 12 15 13 -4 96 -23 184 -42z m1525 20 c0 -14 19 -16 137 -14 125 1 138
-1 153 -18 8 -11 28 -37 44 -57 15 -20 35 -36 43 -36 8 0 24 -5 35 -11 16 -8
18 -13 8 -19 -12 -7 -14 -42 -7 -105 1 -12 -5 -21 -18 -23 -11 -3 -30 -15 -43
-29 -12 -13 -27 -21 -32 -18 -6 3 -10 2 -10 -4 0 -16 -38 -23 -61 -11 -17 9
-20 9 -14 0 5 -9 1 -10 -14 -5 -12 4 -21 2 -21 -4 0 -6 -3 -10 -7 -9 -5 0 -15
-1 -23 -5 -76 -29 -103 -26 -300 33 -52 15 -107 31 -122 34 -16 4 -28 11 -28
16 0 6 -14 10 -31 10 -16 0 -28 4 -25 8 17 28 -114 98 -164 87 -14 -3 -43 -8
-65 -11 -22 -3 -43 -11 -47 -18 -4 -8 -20 -11 -37 -8 -36 5 -31 22 5 22 14 0
33 4 43 10 10 5 43 14 72 19 126 22 265 54 273 62 6 5 4 22 -6 43 l-17 34 97
1 c84 2 200 17 149 20 -24 1 -11 21 14 21 10 0 19 -7 19 -15z m-887 -75 c1
-19 -3 -35 -10 -37 -9 -3 -13 9 -13 43 0 55 21 49 23 -6z m1410 -108 c7 -5 33
-16 60 -26 44 -17 77 -49 59 -60 -20 -12 -135 -27 -144 -18 -6 6 -16 35 -23
66 l-13 56 25 -4 c13 -3 30 -9 36 -14z m1280 -9 c-7 -2 -19 -2 -25 0 -7 3 -2
5 12 5 14 0 19 -2 13 -5z m-480 -13 c16 0 -14 -20 -30 -20 -7 0 -13 7 -13 16
0 11 5 14 16 10 9 -3 21 -6 27 -6z m-2036 -15 c0 -8 -4 -15 -9 -15 -10 0 -11
14 -1 23 9 10 10 9 10 -8z m2610 9 c-3 -3 -12 -4 -19 -1 -8 3 -5 6 6 6 11 1
17 -2 13 -5z m40 -10 c-3 -3 -12 -4 -19 -1 -8 3 -5 6 6 6 11 1 17 -2 13 -5z
m-537 -14 c0 -5 -9 -10 -20 -10 -11 0 -20 5 -20 10 0 6 9 10 20 10 11 0 20 -4
20 -10z m587 4 c-3 -3 -12 -4 -19 -1 -8 3 -5 6 6 6 11 1 17 -2 13 -5z m147
-10 c23 -9 19 -21 -9 -28 -15 -4 -36 0 -53 9 l-27 15 39 -6 c28 -5 37 -4 32 5
-8 13 -4 14 18 5z m-2787 -10 c-3 -3 -12 -4 -19 -1 -8 3 -5 6 6 6 11 1 17 -2
13 -5z m1536 -9 c-3 -9 -8 -14 -10 -11 -3 3 -2 9 2 15 9 16 15 13 8 -4z
m-1335 -57 c84 -46 99 -50 119 -30 16 16 17 16 10 0 -4 -12 -2 -18 7 -18 7 0
27 -7 45 -16 21 -11 44 -14 67 -10 24 5 39 3 49 -8 11 -11 12 -16 2 -20 -6 -4
7 -4 31 -1 25 3 42 1 42 -5 0 -5 24 -10 53 -10 60 0 130 -17 122 -30 -6 -10
74 -50 102 -50 12 0 28 -6 36 -14 9 -9 24 -12 37 -9 15 4 21 2 17 -4 -5 -7 0
-9 13 -6 11 3 20 0 20 -6 0 -6 6 -11 14 -11 7 0 25 -11 40 -25 14 -13 26 -20
26 -15 0 13 37 13 45 0 3 -5 19 -10 36 -10 31 0 40 -17 14 -26 -14 -6 -13 -8
2 -21 17 -13 16 -14 -9 -9 -15 4 -40 11 -55 17 -15 7 -44 13 -63 16 -19 2 -40
5 -47 8 -7 2 -10 -1 -7 -8 6 -17 -79 -37 -102 -24 -13 8 -14 11 -3 18 11 7 10
9 -3 9 -10 0 -18 5 -18 10 0 6 -7 10 -15 10 -8 0 -15 -4 -15 -10 0 -13 -37
-13 -45 0 -4 6 -14 10 -23 9 -23 -4 -62 10 -62 21 0 5 -10 14 -21 21 -16 8
-20 8 -14 0 9 -15 -34 -5 -92 20 -23 11 -45 19 -49 19 -21 0 -144 56 -144 66
0 6 -7 17 -15 24 -11 9 -13 16 -5 24 19 19 11 36 -19 36 -17 0 -32 4 -35 9 -3
4 -47 23 -98 42 -51 18 -94 36 -96 41 -2 4 -19 10 -38 14 -19 3 -36 10 -39 14
-10 17 133 -23 183 -52z m1982 15 c18 -17 17 -18 -28 -20 -40 -1 -43 0 -17 7
24 6 25 8 8 9 -32 2 -39 21 -8 21 14 0 34 -8 45 -17z m27 -39 c-3 -3 -12 -4
-19 -1 -8 3 -5 6 6 6 11 1 17 -2 13 -5z m-1792 -34 c3 -6 -1 -7 -9 -4 -18 7
-21 14 -7 14 6 0 13 -4 16 -10z m-1655 -20 c-30 -11 -67 -19 -81 -19 -14 -1
-47 -8 -73 -17 -26 -9 -50 -13 -53 -10 -9 9 -7 10 107 38 122 31 184 36 100 8z
m1501 2 c-7 -2 4 -13 25 -23 23 -11 28 -17 14 -13 -14 3 -36 6 -49 6 -13 0
-20 3 -14 6 6 4 9 15 8 24 -2 12 2 15 13 10 12 -4 13 -7 3 -10z m-44 -18 c-3
-3 -12 -4 -19 -1 -8 3 -5 6 6 6 11 1 17 -2 13 -5z m423 -10 c0 -2 -15 -4 -32
-4 -23 0 -29 3 -19 9 12 8 51 4 51 -5z m-2162 -10 c12 -4 22 -13 22 -20 0 -17
-2 -17 -35 -2 -41 19 -33 34 13 22z m-36 -187 c-2 -90 -7 -145 -13 -142 -10 7
-12 246 -3 283 14 49 19 1 16 -141z m3575 41 c-3 -8 -6 -5 -6 6 -1 11 2 17 5
13 3 -3 4 -12 1 -19z m-2922 -39 c0 -13 -16 -14 -70 -4 -11 2 -26 4 -32 4 -7
1 -13 6 -13 12 0 6 21 9 58 6 40 -3 57 -8 57 -18z m3061 1 c7 0 19 -6 26 -13
7 -8 20 -16 28 -20 27 -10 -29 -7 -75 4 -53 13 -74 45 -24 35 17 -3 37 -6 45
-6z m-1416 -64 c-14 -7 -36 -16 -50 -20 -14 -3 -7 3 15 14 45 22 74 27 35 6z
m550 -6 c0 -5 -5 -10 -11 -10 -5 0 -7 5 -4 10 3 6 8 10 11 10 2 0 4 -4 4 -10z
m-665 -39 c-7 -13 -72 -34 -88 -28 -17 5 42 36 71 37 13 0 21 -4 17 -9z m-125
-51 c-39 -30 -196 -83 -215 -72 -15 8 -14 11 7 24 35 23 169 68 203 68 l30 0
-25 -20z m380 -67 c0 -8 -11 -52 -24 -97 -13 -44 -34 -125 -47 -178 -12 -54
-26 -98 -30 -98 -5 0 -9 2 -9 4 0 14 43 208 64 289 15 53 26 100 26 103 0 3 5
2 10 -1 6 -3 10 -13 10 -22z m1559 -2 c-14 -11 -26 -15 -28 -9 -4 12 17 28 38
28 8 0 3 -8 -10 -19z m-2427 -113 c-9 -9 -12 -7 -12 12 0 19 3 21 12 12 9 -9
9 -15 0 -24z m2574 -136 c-4 -3 -14 2 -24 12 -16 18 -16 18 6 6 13 -6 21 -14
18 -18z m2 -87 c-3 -3 -9 2 -12 12 -6 14 -5 15 5 6 7 -7 10 -15 7 -18z m-21
-27 c-3 -8 -6 -5 -6 6 -1 11 2 17 5 13 3 -3 4 -12 1 -19z m841 -15 c-16 -2
-28 -8 -28 -13 0 -4 -8 -11 -17 -14 -15 -6 -15 -4 2 14 10 11 29 19 44 19 l26
-2 -27 -4z m-4440 -87 c-4 -30 -36 -34 -33 -4 1 13 3 29 4 37 1 11 4 11 16 1
9 -7 15 -23 13 -34z m3675 7 c-7 -2 -19 -2 -25 0 -7 3 -2 5 12 5 14 0 19 -2
13 -5z m-1892 -44 l-9 -34 -1 31 c-1 17 2 34 6 37 12 13 14 -1 4 -34z m-1831
-29 c-33 -26 -49 -26 -19 0 13 10 29 19 34 19 6 1 -1 -8 -15 -19z m4663 -7
c-7 -2 -19 -2 -25 0 -7 3 -2 5 12 5 14 0 19 -2 13 -5z m-2778 -23 c-3 -5 -16
-10 -28 -10 -18 0 -19 2 -7 10 20 13 43 13 35 0z m-2394 -45 c57 -8 118 -19
134 -24 l30 -9 -35 -1 c-20 -1 -90 6 -155 14 -66 8 -140 15 -165 15 -33 0 -41
3 -30 10 22 14 101 12 221 -5z m513 -357 c3 -13 5 -41 5 -63 l-1 -40 -13 30
c-16 34 -20 95 -6 95 5 0 11 -10 15 -22z m56 -72 c0 -6 -7 -1 -15 10 -8 10
-14 26 -14 34 0 16 28 -28 29 -44z m865 -186 c3 -6 -1 -7 -9 -4 -18 7 -21 14
-7 14 6 0 13 -4 16 -10z m149 -119 c34 -37 11 -32 -25 5 -21 23 -26 33 -14 26
11 -5 29 -20 39 -31z m33 -23 c-2 -13 -4 -3 -4 22 0 25 2 35 4 23 2 -13 2 -33
0 -45z m-904 -178 c-23 -22 -51 -52 -62 -66 -11 -14 -25 -24 -31 -22 -22 7
101 128 130 128 3 0 -14 -18 -37 -40z"/>
<path d="M4318 6012 c-4 -15 0 -17 23 -14 35 5 39 32 5 32 -14 0 -26 -7 -28
-18z"/>
<path d="M3997 5987 c-4 -10 -7 -28 -7 -40 1 -20 2 -20 11 -4 6 10 9 28 7 40
-3 20 -4 20 -11 4z"/>
<path d="M4318 5963 c-36 -6 -35 -17 1 -33 23 -9 33 -9 50 2 40 24 12 41 -51
31z"/>
<path d="M4320 5841 c0 -5 6 -11 13 -14 8 -3 14 1 14 9 0 8 -6 14 -14 14 -7 0
-13 -4 -13 -9z"/>
<path d="M3868 5833 c6 -2 18 -2 25 0 6 3 1 5 -13 5 -14 0 -19 -2 -12 -5z"/>
<path d="M4130 5540 c0 -5 4 -10 9 -10 6 0 13 5 16 10 3 6 -1 10 -9 10 -9 0
-16 -4 -16 -10z"/>
<path d="M4260 5393 c-17 -7 -30 -23 -30 -40 0 -8 7 -8 30 0 18 7 30 19 30 29
0 19 -5 20 -30 11z"/>
<path d="M4300 5345 c-7 -8 -16 -12 -22 -9 -17 10 -39 -17 -31 -40 3 -12 7
-38 7 -58 1 -21 5 -38 11 -38 11 0 11 3 13 73 2 46 2 47 35 47 38 0 48 6 40
26 -7 18 -37 18 -53 -1z"/>
<path d="M3565 5430 c4 -6 11 -8 16 -5 14 9 11 15 -7 15 -8 0 -12 -5 -9 -10z"/>
<path d="M4307 4373 c-26 -7 -16 -26 16 -30 22 -3 27 0 27 17 0 20 -8 22 -43
13z"/>
<path d="M4345 4310 c4 -6 11 -8 16 -5 14 9 11 15 -7 15 -8 0 -12 -5 -9 -10z"/>
<path d="M3362 4409 c-1 -9 -13 -22 -27 -29 -19 -10 -25 -21 -23 -42 1 -15 6
-28 11 -28 5 0 6 8 2 18 -5 14 -4 15 6 5 15 -15 33 -17 25 -4 -4 5 -1 11 5 13
6 2 9 20 6 43 -2 22 -4 33 -5 24z"/>
<path d="M3021 4384 c0 -11 3 -14 6 -6 3 7 2 16 -1 19 -3 4 -6 -2 -5 -13z"/>
<path d="M1136 4381 c-10 -11 -16 -26 -13 -33 3 -8 6 -6 6 5 1 10 6 15 11 12
6 -3 13 1 16 10 10 24 -1 27 -20 6z"/>
<path d="M1020 4150 c0 -5 5 -10 11 -10 5 0 7 5 4 10 -3 6 -8 10 -11 10 -2 0
-4 -4 -4 -10z"/>
<path d="M3227 2549 c6 -6 63 -12 129 -14 l119 -4 -110 14 c-140 18 -152 18
-138 4z"/>
<path d="M2306 2071 c-4 -6 -3 -11 3 -11 6 0 8 -8 5 -17 -5 -16 -4 -16 6 0 8
13 9 22 2 29 -6 6 -12 6 -16 -1z"/>
<path d="M2510 2070 c0 -5 9 -10 19 -10 11 0 28 -3 38 -6 12 -5 15 -4 8 3 -15
15 -65 25 -65 13z"/>
<path d="M2361 2043 l-23 -5 27 -14 c31 -16 47 -19 25 -4 -13 9 -13 11 0 20
15 10 12 10 -29 3z"/>
<path d="M2668 2013 c7 -3 16 -2 19 1 4 3 -2 6 -13 5 -11 0 -14 -3 -6 -6z"/>
<path d="M2565 2000 c-3 -6 1 -7 9 -4 18 7 21 14 7 14 -6 0 -13 -4 -16 -10z"/>
<path d="M2610 1985 c7 -8 22 -15 34 -15 20 1 20 2 -4 15 -33 19 -46 19 -30 0z"/>
<path d="M4183 7046 c-9 -11 -8 -15 10 -20 26 -6 31 -2 24 19 -8 18 -18 19
-34 1z"/>
<path d="M4385 6735 c0 -14 3 -25 8 -25 4 0 7 11 7 25 0 14 -3 25 -7 25 -5 0
-8 -11 -8 -25z"/>
<path d="M4863 6680 c0 -25 2 -35 4 -22 2 12 2 32 0 45 -2 12 -4 2 -4 -23z"/>
<path d="M4376 6693 c-4 -5 -31 -9 -59 -10 -58 -2 -151 -18 -168 -29 -8 -4 -7
-9 2 -15 12 -7 12 -11 1 -17 -10 -7 -6 -13 14 -27 35 -22 59 -10 59 31 l0 29
85 0 c81 0 85 1 88 23 3 22 -8 29 -22 15z"/>
<path d="M2571 6458 c0 -44 3 -57 9 -43 12 28 12 93 0 100 -6 4 -10 -17 -9
-57z"/>
<path d="M4030 6470 c0 -5 5 -10 10 -10 6 0 10 5 10 10 0 6 -4 10 -10 10 -5 0
-10 -4 -10 -10z"/>
<path d="M4927 6293 c-3 -70 -3 -132 1 -139 4 -7 8 50 10 127 2 76 2 139 -1
139 -2 0 -7 -57 -10 -127z"/>
<path d="M4903 6360 c0 -25 2 -35 4 -22 2 12 2 32 0 45 -2 12 -4 2 -4 -23z"/>
<path d="M2581 6174 c0 -11 3 -14 6 -6 3 7 2 16 -1 19 -3 4 -6 -2 -5 -13z"/>
<path d="M5135 6051 c-18 -7 -17 -9 11 -24 19 -10 44 -14 65 -11 50 8 56 21
12 28 -21 4 -45 9 -53 11 -8 2 -24 0 -35 -4z"/>
<path d="M5330 6030 c0 -5 5 -10 10 -10 6 0 10 5 10 10 0 6 -4 10 -10 10 -5 0
-10 -4 -10 -10z"/>
<path d="M5485 6020 c3 -5 10 -10 16 -10 5 0 9 5 9 10 0 6 -7 10 -16 10 -8 0
-12 -4 -9 -10z"/>
<path d="M4922 5970 c0 -19 2 -27 5 -17 2 9 2 25 0 35 -3 9 -5 1 -5 -18z"/>
<path d="M2583 5900 c0 -25 2 -35 4 -22 2 12 2 32 0 45 -2 12 -4 2 -4 -23z"/>
<path d="M5125 5771 c-16 -7 -14 -9 14 -14 48 -10 121 -9 121 2 0 18 -97 27
-135 12z"/>
<path d="M5326 5773 c-11 -11 -6 -23 9 -23 8 0 15 4 15 9 0 13 -16 22 -24 14z"/>
<path d="M5485 5761 c-8 -14 10 -22 30 -15 13 5 14 8 3 15 -17 11 -26 11 -33
0z"/>
<path d="M5428 5753 c7 -3 16 -2 19 1 4 3 -2 6 -13 5 -11 0 -14 -3 -6 -6z"/>
<path d="M4913 4895 c0 -38 2 -53 4 -32 2 20 2 52 0 70 -2 17 -4 1 -4 -38z"/>
<path d="M4933 4900 c0 -36 2 -50 4 -32 2 17 2 47 0 65 -2 17 -4 3 -4 -33z"/>
<path d="M5492 4745 c0 -16 2 -22 5 -12 2 9 2 23 0 30 -3 6 -5 -1 -5 -18z"/>
<path d="M5479 4637 c-6 -44 1 -60 24 -51 21 8 22 20 3 27 -8 3 -16 18 -18 34
-3 25 -4 24 -9 -10z"/>
<path d="M5420 4600 l-35 -7 38 -2 c20 0 37 4 37 9 0 6 -1 9 -2 9 -2 -1 -19
-5 -38 -9z"/>
<path d="M5566 4602 c-6 -11 62 -27 72 -18 8 9 1 13 -35 20 -17 4 -34 3 -37
-2z"/>
<path d="M5317 4568 c10 -52 19 -53 25 -3 2 22 -2 31 -14 33 -15 3 -17 -2 -11
-30z"/>
<path d="M5401 4484 c-24 -30 -26 -45 -9 -62 17 -17 36 -15 61 9 l22 20 5 -33
c5 -32 6 -32 13 -8 4 14 7 38 7 54 0 22 -3 26 -13 18 -10 -8 -16 -6 -25 9 -17
26 -37 24 -61 -7z"/>
<path d="M2443 4345 c0 -33 2 -45 4 -27 2 18 2 45 0 60 -2 15 -4 0 -4 -33z"/>
<path d="M5478 4359 c-3 -13 -2 -51 2 -84 4 -33 8 -51 9 -40 8 82 9 110 2 128
-8 20 -8 20 -13 -4z"/>
<path d="M5316 4334 c-9 -22 -8 -24 9 -24 8 0 15 6 15 14 0 22 -17 28 -24 10z"/>
<path d="M2421 4304 c0 -11 3 -14 6 -6 3 7 2 16 -1 19 -3 4 -6 -2 -5 -13z"/>
<path d="M4640 4280 c0 -5 5 -10 10 -10 6 0 10 5 10 10 0 6 -4 10 -10 10 -5 0
-10 -4 -10 -10z"/>
<path d="M5121 4194 c0 -11 3 -14 6 -6 3 7 2 16 -1 19 -3 4 -6 -2 -5 -13z"/>
<path d="M5480 4184 c0 -14 4 -23 9 -20 5 3 7 15 4 26 -7 28 -13 25 -13 -6z"/>
<path d="M5170 4190 c0 -5 9 -10 20 -10 11 0 20 5 20 10 0 6 -9 10 -20 10 -11
0 -20 -4 -20 -10z"/>
<path d="M5172 4108 c2 -12 9 -23 15 -26 19 -6 29 28 12 39 -23 14 -31 10 -27
-13z"/>
<path d="M5160 4077 c0 -2 6 -10 14 -16 11 -9 16 -9 22 1 4 7 4 10 -1 6 -4 -4
-14 -3 -22 3 -7 6 -13 9 -13 6z"/>
<path d="M5476 4039 c-7 -17 8 -68 16 -53 2 5 1 23 -2 39 -5 22 -9 26 -14 14z"/>
<path d="M5367 4002 c-9 -2 -15 -8 -12 -13 8 -12 55 -12 55 0 0 12 -21 18 -43
13z"/>
<path d="M5383 3899 c-6 -6 -23 -11 -37 -11 -21 0 -26 -5 -26 -24 0 -13 5 -24
11 -24 6 0 3 -8 -6 -17 -13 -12 -15 -26 -11 -52 3 -20 6 -46 6 -59 0 -18 4
-22 18 -18 17 6 62 -32 62 -50 0 -11 -34 -33 -52 -34 -9 0 -20 -5 -24 -11 -5
-8 6 -9 36 -4 40 7 42 6 38 -16 -2 -20 -10 -24 -45 -27 -34 -2 -43 -7 -43 -22
0 -10 7 -21 16 -24 23 -9 82 -7 88 2 3 5 6 96 7 203 1 159 -1 195 -12 197 -8
1 -20 -3 -26 -9z"/>
<path d="M5538 3520 c10 -26 26 -37 65 -44 37 -7 37 -7 37 27 l0 34 -54 -1
c-44 0 -53 -3 -48 -16z"/>
<path d="M2250 3010 c0 -5 5 -10 10 -10 6 0 10 5 10 10 0 6 -4 10 -10 10 -5 0
-10 -4 -10 -10z"/>
<path d="M2453 2823 c9 -2 25 -2 35 0 9 3 1 5 -18 5 -19 0 -27 -2 -17 -5z"/>
<path d="M2288 2803 c7 -3 16 -2 19 1 4 3 -2 6 -13 5 -11 0 -14 -3 -6 -6z"/>
<path d="M2305 2790 c-13 -5 -14 -9 -5 -9 8 0 24 4 35 9 13 5 14 9 5 9 -8 0
-24 -4 -35 -9z"/>
</g>
</svg>
